<svg id="Capa_1" enable-background="new 0 0 512 512" height="512" viewBox="0 0 512 512" width="512" xmlns="http://www.w3.org/2000/svg"><g><path d="m491.205 389.375h-128.411c5.609-6.923 12.542-16.113 19.777-27.243 3.677-5.657 7.191-11.455 10.447-17.234 2.032-3.609.755-8.183-2.854-10.216-3.605-2.031-8.182-.754-10.216 2.854-2.355 4.183-4.856 8.376-7.458 12.515l-4.647-.542c-27.261-4.29-42.974-9.576-57.519-27.433 24.87-22.866 24.518-48.5 22.381-71.919l11.467 6.045c13.797 7.273 30.863 2.005 38.147-11.812 7.279-13.808 1.996-30.87-11.813-38.149-.675-.357.015-.029-17.751-6.984 10.065 2.464 20.562 1.762 30.181-2.01 2.174.882 4.35 2.015 6.496 3.4 14.424 9.305 22.456 26.08 20.961 43.778-1.708 20.246-6.881 41.107-15.375 62.006-1.56 3.838.287 8.213 4.124 9.772 3.816 1.551 8.205-.266 9.772-4.124 9.063-22.302 14.59-44.639 16.426-66.393 1.954-23.149-8.604-45.155-27.563-57.501 10.454-9.2 17.069-22.664 17.069-37.652v-10.5c0-3.706-.416-7.315-1.182-10.794 17.065-6.245 21.807-28.144 9.019-40.934-11.515-11.512-31.007-9.053-39.177 5.241-5.818-2.365-12.17-3.68-18.827-3.68-27.662 0-50.166 22.505-50.166 50.167v10.5c0 13.357 5.257 25.502 13.799 34.501-.969 1.175-1.885 2.377-2.738 3.607l-66.537-25.984c-39.715-15.51-74.881-15.707-76.993-15.978-11.949-.631-16.345 15.44-5.806 20.996l31.472 16.59c3.666 1.932 8.201.527 10.132-3.138 1.932-3.664.527-8.2-3.137-10.132l-14.921-7.865c18.418 2.204 36.457 6.728 53.796 13.499l110.263 43.061c6.182 3.48 8.581 11.303 5.206 17.704-3.411 6.472-11.411 8.95-17.884 5.537l-105.411-55.567c-3.665-1.932-8.201-.528-10.132 3.138-1.932 3.664-.527 8.2 3.137 10.132l78.08 41.16c2.6 27.173 5.434 49.336-17.398 69.884l-141.494-89.892-12.622-11.27c-5.953-5.315-11.273-11.339-15.813-17.903l-15.058-21.774c-10.984-15.887-35.535-4.914-32.121 13.481l7.61 40.996c1.808 9.742 8.788 17.689 18.215 20.74 4.141 1.635 11.367 2.496 19.026 9.393l95.955 90.103c16.255 15.264 25.317 27.413 36.857 43.822h-239.2c-11.467.001-20.796 9.33-20.796 20.797s9.329 20.795 20.795 20.795h470.41c11.467 0 20.795-9.328 20.795-20.795s-9.328-20.796-20.795-20.796zm-161.693-238.841v-10.5c0-1.324.08-2.63.224-3.917h26.124c3.668 0 6.652 2.984 6.652 6.652 0 5.277 1.922 10.362 5.41 14.319l18.537 21.024c-22.869 18.102-56.947 1.841-56.947-27.578zm82.562-51.622c5.152 5.153 3.131 13.986-3.815 16.323-3.07-5.375-7.097-10.134-11.86-14.032 3.157-5.828 11.02-6.946 15.675-2.291zm-47.396 5.955c19.392 0 35.167 15.775 35.167 35.167v10.5c0 5.683-1.363 11.051-3.767 15.806l-16.905-19.172c-1.071-1.216-1.661-2.777-1.661-4.399 0-11.939-9.713-21.652-21.652-21.652h-20.803c6.255-9.762 17.191-16.25 29.621-16.25zm-251.902 126.918c-4.185-1.354-7.283-4.882-8.085-9.207l-7.61-40.996c-.543-2.923 3.441-4.517 5.035-2.212l15.059 21.774c5.213 7.539 11.324 14.457 18.16 20.562l7.286 6.506-11.133 11.639c-8.018-5.365-14.394-6.47-18.712-8.066zm162.618 153.42c-11.849-16.926-22.117-31.929-41.987-50.588l-90.512-84.992 11.68-12.21 140.243 89.098c9.045 12.457 18.792 20.995 30.574 26.804 11.031 5.438 23.173 8.258 37.818 10.644-8.389 11.866-15.826 20.626-20.11 25.415h-63.117c-1.791-1.032-3.373-2.432-4.589-4.171zm215.811 30.761h-470.41c-3.196 0-5.795-2.6-5.795-5.795 0-3.196 2.6-5.796 5.795-5.796h470.41c3.195 0 5.795 2.6 5.795 5.796 0 3.195-2.6 5.795-5.795 5.795z"/></g></svg>